<svg width="8054" height="8617" viewBox="0 0 8054 8617" fill="none" xmlns="http://www.w3.org/2000/svg">
<path d="M6902.02 8.55498C6873.9 12.0706 6058.27 198.399 5091.48 421.641C3885.62 699.375 3300.27 841.758 3228.19 875.157C3003.19 977.11 2811.59 1168.71 2714.91 1384.92C2619.99 1594.1 2621.75 1551.91 2621.75 3752.7C2621.75 4877.7 2616.48 5797.03 2611.2 5797.03C2605.93 5797.03 2565.5 5768.91 2519.8 5733.75C2394.99 5638.83 2140.11 5521.05 1962.57 5478.87C1744.6 5426.13 1444.02 5424.38 1226.05 5478.87C767.257 5589.61 371.75 5902.5 166.086 6315.59C-16.727 6681.21 -50.1254 7125.94 76.4371 7519.69C180.148 7839.61 413.937 8154.26 693.429 8344.1C1110.03 8627.11 1670.77 8695.66 2147.14 8519.88C2440.69 8412.66 2727.22 8187.66 2904.76 7931.02C2985.62 7813.24 3091.09 7579.45 3135.03 7423.01L3175.46 7282.38L3184.25 4478.67L3193.04 1674.96L3231.71 1604.65C3275.66 1522.03 3363.55 1435.9 3440.89 1395.47C3534.05 1349.77 6923.12 572.813 7037.37 571.055C7227.22 569.297 7424.09 713.438 7473.31 889.219C7483.86 931.407 7490.89 1646.84 7490.89 3005.63V5058.75L7399.48 4986.68C7278.19 4895.27 7060.23 4789.8 6884.44 4738.83C6764.91 4705.43 6701.63 4698.4 6471.36 4698.4C6147.92 4698.4 6040.69 4721.25 5773.51 4849.57C4664.33 5380.43 4560.62 6916.76 5587.18 7600.55C5833.27 7765.78 6081.12 7848.4 6383.47 7864.22C7178 7909.92 7874.09 7363.24 8028.78 6570.47C8049.87 6457.97 8055.15 6030.82 8053.39 3663.05C8053.39 1200.35 8049.87 875.157 8025.26 780.235C7925.07 390 7605.15 91.1722 7213.16 20.8597C7079.56 -1.9919 7003.98 -5.50752 6902.02 8.55498Z" fill="#00FF00"/>
</svg>
